<svg width="64" height="75" viewBox="0 0 64 75" fill="none" xmlns="http://www.w3.org/2000/svg">
<path d="M11.2007 35.3322C11.8979 36.2894 12.7586 37.138 13.7499 37.8458L11.9702 39.065C11.3304 38.5607 10.7543 37.9927 10.2524 37.3714L4.75532 30.6945L2.42935 38.6597H0.103394L3.07187 28.7245L0.350752 25.5132H2.99965L8.29408 31.9388L10.8674 25.5132H13.2724L9.88132 33.7486L11.2007 35.3322Z" fill="white"/>
<path d="M18.3507 37.4341C21.1473 35.9636 23.1607 33.7013 23.1607 30.3519V27.1627H15.5643V21.9124H17.8697V25.5163H25.466V30.0157C25.5147 31.8979 24.9501 33.7509 23.8439 35.3388C22.7378 36.9267 21.1401 38.1778 19.2542 38.9328L18.3507 37.4341Z" fill="white"/>
<path d="M29.6359 38.6565V27.1628H28.1173V25.5132H31.9515V38.6565H29.6359Z" fill="white"/>
<path d="M34.9554 38.6565V37.0006H38.6901C40.8683 37.0006 42.2288 35.5301 42.2288 33.1799V27.1628H34.9554V25.5132H44.5307V33.0919C44.5307 36.4193 42.4006 38.6565 39.1848 38.6565H34.9554Z" fill="white"/>
<path d="M49.9654 37.4217L51.0304 32.7589H48.172V31.1721H51.3946L52.3188 27.2005H49.2267V25.6107H52.6624L53.7275 20.9981H55.7889L54.7582 25.6107H58.85L59.9117 20.9981H61.9731L60.908 25.6107H64.0001V27.2005H60.5267L59.63 31.1721H62.9351V32.762H59.2658L58.2007 37.4248H56.1393L57.2043 32.762H53.1159L52.0508 37.4248L49.9654 37.4217ZM53.4664 31.169H57.5892L58.455 27.1974H54.363L53.4664 31.169Z" fill="white"/>
<path d="M7.60689 64.23C11.0975 61.9928 13.5438 58.8005 13.5438 54.4676V49.6037H0.000244141V46.1945H18.3228V53.8957C18.3784 56.6299 17.6152 59.3259 16.1157 61.6919C14.6163 64.0578 12.4378 66.0036 9.816 67.3186L7.60689 64.23ZM0.306067 74.206V58.5868C0.272337 57.429 0.624618 56.2893 1.31614 55.319H5.31188C4.9816 56.5613 4.85191 57.8412 4.92704 59.1178V74.1997L0.306067 74.206Z" fill="white"/>
<path d="M25.1843 58.3386C25.7649 56.1813 26.0136 53.9604 25.923 51.7403V49.6036H22.2777V46.1945H30.702V50.0969C30.702 54.2853 30.3172 56.9498 29.2247 59.1147L25.1843 58.3386Z" fill="white"/>
<path d="M37.3357 58.3386C37.9138 56.1809 38.1612 53.9602 38.0709 51.7403V49.6036H34.4222V46.1945H42.8465V50.0969C42.8465 54.2853 42.4617 56.9498 41.3692 59.1147L37.3357 58.3386Z" fill="white"/>
<path d="M51.1132 64.4777C55.5005 62.2783 58.414 58.8691 58.414 54.1843V49.6032H46.9595V40.8055H51.7694V46.2035H63.2205V53.4051C63.2978 56.4544 62.344 59.4513 60.4895 61.9864C58.6349 64.5214 55.97 66.4713 52.8585 67.5695L51.1132 64.4777Z" fill="white"/>
<path d="M31.392 0.207335C23.4453 0.716348 4.12646 3.16715 4.64869 9.94771C5.17091 16.7283 28.4305 15.9993 32.5842 15.7322C36.7379 15.4651 60.0868 13.4416 59.5508 6.42858C59.0939 0.543512 43.0149 -0.537332 31.392 0.207335ZM32.196 12.7756C20.5319 13.5234 7.99504 11.7198 7.82669 9.54551C7.65834 7.37121 19.5596 4.12545 31.4882 3.35879C43.5337 2.57642 55.9949 4.0375 56.1804 6.45689C56.366 8.87627 43.8567 12.034 32.196 12.7818V12.7756Z" fill="#69F0ED"/>
</svg>
