<svg width="33" height="33" viewBox="0 0 33 33" fill="none" xmlns="http://www.w3.org/2000/svg">
<rect x="2.5" y="2.10297" width="28" height="28" rx="4" fill="#1275B1"/>
<path d="M13.1186 9.79512C13.1186 10.7297 12.3085 11.4873 11.3093 11.4873C10.31 11.4873 9.5 10.7297 9.5 9.79512C9.5 8.86057 10.31 8.10297 11.3093 8.10297C12.3085 8.10297 13.1186 8.86057 13.1186 9.79512Z" fill="white"/>
<path d="M9.74742 12.7311H12.8402V22.103H9.74742V12.7311Z" fill="white"/>
<path d="M17.8196 12.7311H14.7268V22.103H17.8196C17.8196 22.103 17.8196 19.1526 17.8196 17.3078C17.8196 16.2006 18.1977 15.0885 19.7062 15.0885C21.411 15.0885 21.4008 16.5375 21.3928 17.6601C21.3824 19.1274 21.4072 20.6248 21.4072 22.103H24.5V17.1567C24.4738 13.9983 23.6508 12.543 20.9433 12.543C19.3354 12.543 18.3387 13.273 17.8196 13.9335V12.7311Z" fill="white"/>
</svg>
