<svg width="36" height="42" viewBox="0 0 36 42" fill="none" xmlns="http://www.w3.org/2000/svg">
<path d="M6.3004 19.9978C6.69262 20.5395 7.17675 21.0199 7.73435 21.4205L6.73329 22.1105C6.3734 21.8251 6.0493 21.5036 5.76701 21.1519L2.6749 17.3729L1.36654 21.8811H0.0581894L1.72796 16.2578L0.197329 14.4403H1.68733L4.66545 18.0771L6.11294 14.4403H7.46574L5.55827 19.1015L6.3004 19.9978Z" fill="#5C11D5"/>
<path d="M10.3223 21.1874C11.8954 20.3551 13.0279 19.0747 13.0279 17.1789V15.3739H8.75494V12.4022H10.0517V14.442H14.3246V16.9887C14.352 18.054 14.0344 19.1027 13.4122 20.0015C12.79 20.9002 11.8913 21.6083 10.8305 22.0357L10.3223 21.1874Z" fill="#5C11D5"/>
<path d="M16.6702 21.8793V15.374H15.816V14.4403H17.9728V21.8793H16.6702Z" fill="#5C11D5"/>
<path d="M19.6625 21.8793V20.9421H21.7632C22.9885 20.9421 23.7538 20.1098 23.7538 18.7795V15.374H19.6625V14.4403H25.0486V18.7297C25.0486 20.613 23.8504 21.8793 22.0415 21.8793H19.6625Z" fill="#5C11D5"/>
<path d="M28.1055 21.1804L28.7046 18.5413H27.0967V17.6432H28.9094L29.4293 15.3953H27.69V14.4954H29.6225L30.2217 11.8848H31.3812L30.8014 14.4954H33.1031L33.7003 11.8848H34.8598L34.2607 14.4954H36V15.3953H34.0462L33.5418 17.6432H35.401V18.543H33.3369L32.7379 21.1822H31.5783L32.1774 18.543H29.8777L29.2785 21.1822L28.1055 21.1804ZM30.0748 17.6414H32.3939L32.8809 15.3935H30.5792L30.0748 17.6414Z" fill="#5C11D5"/>
<path d="M4.27883 36.3536C6.24232 35.0874 7.61831 33.2806 7.61831 30.8282V28.0752H9.15527e-05V26.1457H10.3065V30.5045C10.3378 32.052 9.90848 33.5779 9.06505 34.9171C8.22162 36.2562 6.99621 37.3575 5.52146 38.1018L4.27883 36.3536ZM0.172117 42V33.1596C0.153144 32.5043 0.351302 31.8593 0.740281 31.3101H2.98788C2.8021 32.0132 2.72916 32.7376 2.77141 33.4602V41.9964L0.172117 42Z" fill="#5C11D5"/>
<path d="M14.1662 33.0191C14.4928 31.7981 14.6327 30.5411 14.5817 29.2845V28.0752H12.5312V26.1457H17.2699V28.3544C17.2699 30.725 17.0534 32.2331 16.4389 33.4584L14.1662 33.0191Z" fill="#5C11D5"/>
<path d="M21.0013 33.0191C21.3265 31.7979 21.4656 30.541 21.4148 29.2845V28.0752H19.3625V26.1457H24.1011V28.3544C24.1011 30.725 23.8847 32.2331 23.2701 33.4584L21.0013 33.0191Z" fill="#5C11D5"/>
<path d="M28.7511 36.4939C31.219 35.249 32.8578 33.3195 32.8578 30.6679V28.075H26.4146V23.0956H29.1202V26.1508H35.5615V30.2269C35.6049 31.9528 35.0685 33.6489 34.0253 35.0838C32.9821 36.5186 31.4831 37.6222 29.7329 38.2438L28.7511 36.4939Z" fill="#5C11D5"/>
<path d="M17.6581 0.11735C13.188 0.405447 2.32117 1.79258 2.61492 5.63032C2.90867 9.46806 15.9922 9.05546 18.3287 8.9043C20.6651 8.75314 33.7989 7.60787 33.4974 3.63853C33.2404 0.307623 24.1959 -0.304126 17.6581 0.11735ZM18.1103 7.23086C11.5492 7.65412 4.49725 6.63332 4.40255 5.40269C4.30786 4.17205 11.0023 2.33497 17.7122 1.90105C24.4878 1.45823 31.4972 2.2852 31.6015 3.65455C31.7059 5.0239 24.6694 6.81117 18.1103 7.23442V7.23086Z" fill="#69F0ED"/>
</svg>
